<?xml version="1.0" standalone="no"?>
<!DOCTYPE svg PUBLIC "-//W3C//DTD SVG 20010904//EN"
 "http://www.w3.org/TR/2001/REC-SVG-20010904/DTD/svg10.dtd">
<svg version="1.0" xmlns="http://www.w3.org/2000/svg"
 width="512.000000pt" height="512.000000pt" viewBox="0 0 512.000000 512.000000"
 preserveAspectRatio="xMidYMid meet">

<g transform="translate(0.000000,512.000000) scale(0.100000,-0.100000)"
fill="#FFFFFF" stroke="none">
<path d="M2551 5109 c-13 -5 -57 -40 -96 -78 -95 -90 -171 -141 -318 -211
-355 -170 -863 -274 -1470 -300 -249 -10 -267 -14 -311 -73 l-21 -28 0 -1317
c0 -1468 -5 -1364 70 -1589 140 -420 505 -807 1044 -1108 279 -155 635 -295
958 -376 123 -31 131 -32 203 -19 93 15 313 77 444 125 345 125 669 290 918
466 434 308 697 669 785 1079 17 80 18 167 18 1417 l0 1332 -30 31 c-16 18
-38 36 -47 41 -9 5 -120 14 -245 19 -586 26 -1062 122 -1388 280 -137 66 -225
130 -312 224 -84 92 -133 113 -202 85z m92 -393 c341 -277 980 -465 1675 -493
l162 -6 0 -1191 c-1 -954 -3 -1206 -14 -1266 -39 -215 -150 -428 -324 -619
-291 -320 -841 -624 -1450 -801 l-134 -39 -101 29 c-388 109 -793 288 -1076
474 -157 103 -230 162 -350 279 -192 188 -311 385 -373 619 l-22 83 -3 1218
-4 1217 93 0 c200 0 597 46 828 96 372 80 732 221 950 373 47 33 89 60 93 60
5 1 27 -14 50 -33z"/>
<path d="M2396 3894 c-258 -57 -464 -243 -553 -499 -27 -80 -28 -82 -31 -382
l-4 -303 -87 0 c-70 0 -95 -4 -131 -22 -84 -44 -80 -6 -80 -733 0 -727 -4
-689 80 -732 l44 -23 923 0 c1022 0 966 -4 1019 66 l29 37 0 653 0 652 -31 39
c-17 21 -46 43 -65 50 -25 9 -215 12 -717 12 l-683 1 3 283 3 282 36 75 c164
343 650 346 810 5 18 -37 34 -97 43 -156 16 -108 27 -131 75 -161 73 -46 168
-17 209 62 20 39 22 54 16 115 -30 320 -229 570 -529 665 -93 29 -280 36 -379
14z m909 -1939 l0 -450 -747 -3 -748 -2 0 455 0 455 748 -2 747 -3 0 -450z"/>
<path d="M2521 2100 c-18 -5 -50 -24 -70 -44 -34 -34 -36 -40 -36 -101 0 -59
2 -66 35 -100 78 -81 197 -60 242 42 50 113 -49 231 -171 203z"/>
</g>
</svg>
